<?xml version="1.0" encoding="utf-8"?>
<!-- Generator: Adobe Illustrator 23.0.0, SVG Export Plug-In . SVG Version: 6.00 Build 0)  -->
<svg version="1.1" id="Layer_1" xmlns="http://www.w3.org/2000/svg" xmlns:xlink="http://www.w3.org/1999/xlink" x="0px" y="0px"
	 viewBox="0 0 133 67" style="enable-background:new 0 0 133 67;" xml:space="preserve">
<style type="text/css">
	.st0{fill:#231F20;}
	.st1{fill:#EC1C24;}
</style>
<g>
	<path class="st0" d="M0.6,53.71h2.66c1.1,0,2.56-1.65,2.56-2.66V15.11c0-1.01-1.47-2.57-2.56-2.57H0.6V0.8h26.68V65H0.6V53.71z
		 M30.03,65V53.16h0.27c8.99,0,13.67-6.23,13.67-19.9c0-13.66-4.49-19.9-13.67-19.9h-0.27V0.8h0.55c24.31,0,35.4,10.09,35.4,31.63
		C65.98,53.81,54.61,65,30.03,65z"/>
	<path class="st1" d="M88.97,13.09H86.4l-1.37,11.83H72.28V0.8h16.69V13.09z M113.36,0.8v50.25c0,1.01,1.48,2.66,2.57,2.66h3.03V65
		H86.31V53.71h3.03c1.1,0,2.57-1.65,2.57-2.66V0.8H113.36z M116.12,0.8H133v24.11h-12.66l-1.47-11.83h-2.75V0.8z"/>
</g>
</svg>
